name rise34.3697peak60.0498fall86.3158.mot
datacolumns 19
datarows 35
range 22.09324800000000 22.14991900000000
endheader
time	ground_force1_vx	ground_force1_vy	ground_force1_vz	ground_force1_px	ground_force1_py	ground_force1_pz	ground_force2_vx	ground_force2_vy	ground_force2_vz	ground_force2_px	ground_force2_py	ground_force2_pz	ground_torque1_x	ground_torque1_y	ground_torque1_z	ground_torque2_x	ground_torque2_y	ground_torque2_z	
22.09324800000000	-46.72443100000000	818.38093500000002	58.30675100000000	0.17705400000000	0.00000000000000	0.09636700000000	-4.18329600000000	20.47791900000000	4.32380900000000	0.00000000000000	0.00000000000000	0.00000000000000	0.00000000000000	27.71777100000000	0.00000000000000	0.00000000000000	1.91049700000000	0.00000000000000	
22.09491600000000	-46.85246500000000	816.15471800000000	58.24349800000000	0.17634100000000	0.00000000000000	0.09635300000000	-5.05504000000000	26.17625000000000	5.33970100000000	0.40088500000000	0.00000000000000	-0.06556000000000	0.00000000000000	27.62008200000000	0.00000000000000	0.00000000000000	4.17629100000000	0.00000000000000	
22.09658100000000	-46.98791900000000	813.79381500000000	58.15329500000000	0.17562700000000	0.00000000000000	0.09633700000000	-5.90108500000000	32.25692600000000	6.36881200000000	0.40544600000000	0.00000000000000	-0.06603900000000	0.00000000000000	27.51658500000000	0.00000000000000	0.00000000000000	5.02493400000000	0.00000000000000	
22.09824800000000	-47.13137400000000	811.29774099999997	58.03570600000000	0.17491200000000	0.00000000000000	0.09631800000000	-6.68834700000000	38.60162100000000	7.37992800000000	0.40953200000000	0.00000000000000	-0.06648600000000	0.00000000000000	27.40731600000000	0.00000000000000	0.00000000000000	5.87064300000000	0.00000000000000	
22.09991600000000	-47.28337500000000	808.66607599999998	57.89034900000000	0.17419700000000	0.00000000000000	0.09629500000000	-7.38684800000000	45.09429000000000	8.34391900000000	0.41322300000000	0.00000000000000	-0.06690700000000	0.00000000000000	27.29231900000000	0.00000000000000	0.00000000000000	6.68989100000000	0.00000000000000	
22.10157900000000	-47.44443500000000	805.89846000000000	57.71689400000000	0.17348100000000	0.00000000000000	0.09626900000000	-7.97165000000000	51.62996100000000	9.23568500000000	0.41658200000000	0.00000000000000	-0.06730600000000	0.00000000000000	27.17164800000000	0.00000000000000	0.00000000000000	7.46206300000000	0.00000000000000	
22.10324500000000	-47.61502700000000	802.99459000000002	57.51506400000000	0.17276400000000	0.00000000000000	0.09623900000000	-8.42415500000000	58.12157400000000	10.03555900000000	0.41966000000000	0.00000000000000	-0.06768500000000	0.00000000000000	27.04536500000000	0.00000000000000	0.00000000000000	8.17064800000000	0.00000000000000	
22.10491500000000	-47.79558200000000	799.95421699999997	57.28463600000000	0.17204700000000	0.00000000000000	0.09620600000000	-8.73271800000000	64.50436000000001	10.73006600000000	0.42250000000000	0.00000000000000	-0.06804700000000	0.00000000000000	26.91353900000000	0.00000000000000	0.00000000000000	8.80393900000000	0.00000000000000	
22.10658200000000	-47.98649000000000	796.77714500000002	57.02544200000000	0.17133000000000	0.00000000000000	0.09616800000000	-8.89260700000000	70.73770900000000	11.31206000000000	0.42513300000000	0.00000000000000	-0.06839400000000	0.00000000000000	26.77624900000000	0.00000000000000	0.00000000000000	9.35522300000000	0.00000000000000	
22.10824700000000	-48.18809100000000	793.46322299999997	56.73736800000000	0.17061300000000	0.00000000000000	0.09612700000000	-8.90539900000000	76.80473700000000	11.78032500000000	0.42759000000000	0.00000000000000	-0.06872800000000	0.00000000000000	26.63357800000000	0.00000000000000	0.00000000000000	9.82254400000000	0.00000000000000	
22.10991500000000	-48.40068100000000	790.01234999999997	56.42035600000000	0.16989600000000	0.00000000000000	0.09608200000000	-8.77796900000000	82.70997400000000	12.13875500000000	0.42989200000000	0.00000000000000	-0.06905000000000	0.00000000000000	26.48561700000000	0.00000000000000	0.00000000000000	10.20810200000000	0.00000000000000	
22.11157900000000	-48.62450000000000	786.42446700000005	56.07440400000000	0.16918100000000	0.00000000000000	0.09603300000000	-8.52121600000000	88.47568400000000	12.39526000000000	0.43206000000000	0.00000000000000	-0.06936000000000	0.00000000000000	26.33246400000000	0.00000000000000	0.00000000000000	10.51742300000000	0.00000000000000	
22.11324600000000	-48.85973800000000	782.69955800000002	55.69956400000000	0.16846600000000	0.00000000000000	0.09597900000000	-8.14868700000000	94.13736800000000	12.56052800000000	0.43411100000000	0.00000000000000	-0.06966200000000	0.00000000000000	26.17422200000000	0.00000000000000	0.00000000000000	10.75839600000000	0.00000000000000	
22.11491300000000	-49.10652700000000	778.83764799999994	55.29594400000000	0.16775300000000	0.00000000000000	0.09592100000000	-7.67521600000000	99.73895600000000	12.64678100000000	0.43605700000000	0.00000000000000	-0.06995400000000	0.00000000000000	26.01099600000000	0.00000000000000	0.00000000000000	10.94028300000000	0.00000000000000	
22.11658400000000	-49.36493900000000	774.83879800000000	54.86370800000000	0.16704100000000	0.00000000000000	0.09585900000000	-7.11570100000000	105.32814100000000	12.66662200000000	0.43791100000000	0.00000000000000	-0.07023800000000	0.00000000000000	25.84289900000000	0.00000000000000	0.00000000000000	11.07279100000000	0.00000000000000	
22.11825000000000	-49.63498900000000	770.70311200000003	54.40307300000000	0.16633200000000	0.00000000000000	0.09579200000000	-6.48408700000000	110.95219700000000	12.63204400000000	0.43968300000000	0.00000000000000	-0.07051500000000	0.00000000000000	25.67004600000000	0.00000000000000	0.00000000000000	11.16526600000000	0.00000000000000	
22.11991500000000	-49.91662400000000	766.43072700000005	53.91431100000000	0.16562500000000	0.00000000000000	0.09572000000000	-5.79259200000000	116.65453200000000	12.55366500000000	0.44138100000000	0.00000000000000	-0.07078500000000	0.00000000000000	25.49255400000000	0.00000000000000	0.00000000000000	11.22605300000000	0.00000000000000	
22.12158000000000	-50.20973100000000	762.02181800000005	53.39774700000000	0.16492200000000	0.00000000000000	0.09564300000000	-5.05120900000000	122.47210699999999	12.44019800000000	0.44301400000000	0.00000000000000	-0.07104800000000	0.00000000000000	25.31054200000000	0.00000000000000	0.00000000000000	11.26204300000000	0.00000000000000	
22.12325400000000	-50.51412600000000	757.47659599999997	52.85376000000000	0.16422100000000	0.00000000000000	0.09556200000000	-4.26746000000000	128.43376900000001	12.29815400000000	0.44458600000000	0.00000000000000	-0.07130600000000	0.00000000000000	25.12413200000000	0.00000000000000	0.00000000000000	11.27841600000000	0.00000000000000	
22.12491700000000	-50.82955800000000	752.79530799999998	52.28277800000000	0.16352500000000	0.00000000000000	0.09547600000000	-3.44638200000000	134.55945900000000	12.13177500000000	0.44610400000000	0.00000000000000	-0.07155800000000	0.00000000000000	24.93344400000000	0.00000000000000	0.00000000000000	11.27854900000000	0.00000000000000	
22.12658400000000	-51.15570200000000	747.97823700000004	51.68528500000000	0.16283200000000	0.00000000000000	0.09538500000000	-2.59070600000000	140.86020099999999	11.94313500000000	0.44757300000000	0.00000000000000	-0.07180500000000	0.00000000000000	24.73859900000000	0.00000000000000	0.00000000000000	11.26408100000000	0.00000000000000	
22.12824900000000	-51.49216500000000	743.02570200000002	51.06180900000000	0.16214500000000	0.00000000000000	0.09528800000000	-1.70117100000000	147.33872199999999	11.73239800000000	0.44899500000000	0.00000000000000	-0.07204700000000	0.00000000000000	24.53971700000000	0.00000000000000	0.00000000000000	11.23510300000000	0.00000000000000	
22.12991500000000	-51.83847700000000	737.93805799999996	50.41293200000000	0.16146300000000	0.00000000000000	0.09518700000000	-0.77694100000000	153.99054200000000	11.49816900000000	0.45037500000000	0.00000000000000	-0.07228400000000	0.00000000000000	24.33691700000000	0.00000000000000	0.00000000000000	11.19041900000000	0.00000000000000	
22.13157800000000	-52.19409300000000	732.71569899999997	49.73928000000000	0.16078600000000	0.00000000000000	0.09508000000000	0.18394100000000	160.80537400000000	11.23789200000000	0.45171500000000	0.00000000000000	-0.07251700000000	0.00000000000000	24.13031500000000	0.00000000000000	0.00000000000000	11.12786600000000	0.00000000000000	
22.13324500000000	-52.55839500000000	727.35905600000001	49.04152700000000	0.16011500000000	0.00000000000000	0.09496800000000	1.18409600000000	167.76866300000000	10.94827700000000	0.45301700000000	0.00000000000000	-0.07274500000000	0.00000000000000	23.92002300000000	0.00000000000000	0.00000000000000	11.04464500000000	0.00000000000000	
22.13491400000000	-52.93068400000000	721.86860100000001	48.32039000000000	0.15945200000000	0.00000000000000	0.09485100000000	2.22638100000000	174.86312899999999	10.62569200000000	0.45428500000000	0.00000000000000	-0.07297000000000	0.00000000000000	23.70615100000000	0.00000000000000	0.00000000000000	10.93764600000000	0.00000000000000	
22.13658700000000	-53.31018700000000	716.24484800000005	47.57663200000000	0.15879500000000	0.00000000000000	0.09472900000000	3.31352000000000	182.07019800000000	10.26652200000000	0.45551900000000	0.00000000000000	-0.07319100000000	0.00000000000000	23.48880500000000	0.00000000000000	0.00000000000000	10.80373100000000	0.00000000000000	
22.13825100000000	-53.69605200000000	710.48835499999996	46.81105500000000	0.15814600000000	0.00000000000000	0.09460100000000	4.44780900000000	189.37124000000000	9.86745900000000	0.45672000000000	0.00000000000000	-0.07340800000000	0.00000000000000	23.26808500000000	0.00000000000000	0.00000000000000	10.63998100000000	0.00000000000000	
22.13992000000000	-54.08735200000000	704.59972600000003	46.02450100000000	0.15750500000000	0.00000000000000	0.09446800000000	5.63090100000000	196.74856399999999	9.42572300000000	0.45789000000000	0.00000000000000	-0.07362100000000	0.00000000000000	23.04408700000000	0.00000000000000	0.00000000000000	10.44387900000000	0.00000000000000	
22.14158300000000	-54.48308000000000	698.57961599999999	45.21785300000000	0.15687200000000	0.00000000000000	0.09432900000000	6.86367600000000	204.18612999999999	8.93921000000000	0.45903000000000	0.00000000000000	-0.07383100000000	0.00000000000000	22.81690100000000	0.00000000000000	0.00000000000000	10.21343500000000	0.00000000000000	
22.14324600000000	-54.88215700000000	692.42873599999996	44.39202500000000	0.15624900000000	0.00000000000000	0.09418600000000	8.14618500000000	211.67000700000000	8.40656400000000	0.46014000000000	0.00000000000000	-0.07403700000000	0.00000000000000	22.58661200000000	0.00000000000000	0.00000000000000	9.94725700000000	0.00000000000000	
22.14491600000000	-55.28342700000000	686.14785700000004	43.54797100000000	0.15563500000000	0.00000000000000	0.09403700000000	9.47765800000000	219.18857199999999	7.82719700000000	0.46122100000000	0.00000000000000	-0.07424000000000	0.00000000000000	22.35329800000000	0.00000000000000	0.00000000000000	9.64457000000000	0.00000000000000	
22.14657900000000	-55.68566100000000	679.73781399999996	42.68667300000000	0.15503000000000	0.00000000000000	0.09388200000000	10.85656500000000	226.73249700000000	7.20124900000000	0.46227200000000	0.00000000000000	-0.07443900000000	0.00000000000000	22.11703100000000	0.00000000000000	0.00000000000000	9.30519200000000	0.00000000000000	
22.14824700000000	-56.08756000000000	673.19951600000002	41.80914500000000	0.15443700000000	0.00000000000000	0.09372300000000	12.28071900000000	234.29457400000001	6.52951400000000	0.46329500000000	0.00000000000000	-0.07463500000000	0.00000000000000	21.87787700000000	0.00000000000000	0.00000000000000	8.92948100000000	0.00000000000000	
22.14991900000000	-56.48775400000000	666.53395000000000	40.91643000000000	0.15385400000000	0.00000000000000	0.09355800000000	13.74739300000000	241.86941300000001	5.81333700000000	0.46428900000000	0.00000000000000	-0.07482800000000	0.00000000000000	21.63589400000000	0.00000000000000	0.00000000000000	8.51825600000000	0.00000000000000	
